<svg width="27" height="26" viewBox="0 0 27 26" fill="none" xmlns="http://www.w3.org/2000/svg">
<path d="M21.389 9.89799C21.31 9.68499 21.226 9.47699 21.131 9.27299C20.2383 7.3354 18.6834 5.78008 16.746 4.88699C16.546 4.79299 16.333 4.70799 16.121 4.62899C14.1226 3.87749 11.9193 3.87749 9.92097 4.62899C9.70897 4.70799 9.49997 4.79299 9.29597 4.88699C7.3588 5.7799 5.80388 7.33482 4.91097 9.27199C4.81697 9.47199 4.73197 9.68499 4.65297 9.89799C3.90083 11.8962 3.90083 14.0998 4.65297 16.098C4.73197 16.311 4.81597 16.519 4.91097 16.724C5.80388 18.6612 7.3588 20.2161 9.29597 21.109C9.49597 21.203 9.70897 21.288 9.92097 21.367C11.9193 22.1185 14.1226 22.1185 16.121 21.367C16.333 21.288 16.542 21.203 16.746 21.109C18.6831 20.2161 20.2381 18.6612 21.131 16.724C21.225 16.524 21.31 16.311 21.389 16.098C22.1411 14.0998 22.1411 11.8962 21.389 9.89799ZM13.018 21.421C11.3525 21.4208 9.72448 20.9267 8.33979 20.0013C6.95509 19.0759 5.87591 17.7606 5.23869 16.2219C4.60148 14.6831 4.43486 12.99 4.7599 11.3565C5.08494 9.72308 5.88704 8.22269 7.06478 7.04509C8.24252 5.86749 9.743 5.06557 11.3765 4.74073C13.01 4.41588 14.7031 4.5827 16.2418 5.2201C17.7805 5.85749 19.0956 6.93684 20.0208 8.32164C20.9461 9.70644 21.44 11.3345 21.44 13C21.4376 15.2328 20.5495 17.3735 18.9705 18.9523C17.3916 20.531 15.2508 21.4189 13.018 21.421Z" fill="#FFFBEF"/>
<path d="M25.2331 11.64L23.9891 10.921C23.7054 9.41259 23.1119 7.97941 22.2461 6.712L22.6191 5.325C22.6909 5.05851 22.6911 4.7778 22.6198 4.51118C22.5485 4.24456 22.4082 4.00145 22.213 3.80635C22.0178 3.61125 21.7746 3.47105 21.5079 3.39988C21.2413 3.32872 20.9606 3.32911 20.6941 3.401L19.3071 3.773C18.0396 2.9076 16.6065 2.31445 15.0981 2.031L14.3791 0.786004C14.2412 0.547194 14.0429 0.348886 13.8041 0.21101C13.5653 0.0731347 13.2944 0.000549316 13.0186 0.000549316C12.7429 0.000549316 12.472 0.0731347 12.2331 0.21101C11.9943 0.348886 11.796 0.547194 11.6581 0.786004L10.9401 2.031C9.43178 2.31445 7.9986 2.9076 6.73112 3.773L5.34312 3.401C5.07676 3.32965 4.79631 3.32967 4.52996 3.40105C4.26361 3.47242 4.02074 3.61265 3.82575 3.80764C3.63077 4.00262 3.49054 4.24549 3.41916 4.51185C3.34778 4.7782 3.34777 5.05864 3.41912 5.325L3.79112 6.712C2.92559 7.97979 2.33243 9.41331 2.04912 10.922L0.804121 11.641C0.565545 11.779 0.367458 11.9772 0.229743 12.216C0.0920275 12.4547 0.0195313 12.7254 0.0195312 13.001C0.0195313 13.2766 0.0920275 13.5473 0.229743 13.786C0.367458 14.0248 0.565545 14.223 0.804121 14.361L2.04912 15.08C2.33287 16.5884 2.92637 18.0216 3.79212 19.289L3.41912 20.676C3.34755 20.9424 3.3474 21.223 3.41868 21.4895C3.48996 21.756 3.63016 21.999 3.82518 22.1942C4.02019 22.3893 4.26316 22.5296 4.52962 22.601C4.79609 22.6724 5.07666 22.6724 5.34312 22.601L6.73012 22.229C7.99752 23.0948 9.4307 23.6883 10.9391 23.972L11.6581 25.216C11.796 25.4548 11.9943 25.6531 12.2331 25.791C12.472 25.9289 12.7429 26.0015 13.0186 26.0015C13.2944 26.0015 13.5653 25.9289 13.8041 25.791C14.0429 25.6531 14.2412 25.4548 14.3791 25.216L15.0971 23.972C16.6055 23.6883 18.0387 23.0948 19.3061 22.229L20.6931 22.601C20.9597 22.6732 21.2407 22.6738 21.5076 22.6027C21.7745 22.5316 22.018 22.3913 22.2134 22.196C22.4087 22.0008 22.5491 21.7574 22.6204 21.4905C22.6916 21.2236 22.6912 20.9427 22.6191 20.676L22.2481 19.289C23.1139 18.0216 23.7074 16.5884 23.9911 15.08L25.2351 14.361C25.474 14.2233 25.6723 14.025 25.8102 13.7863C25.9481 13.5476 26.0207 13.2767 26.0207 13.001C26.0207 12.7253 25.9481 12.4544 25.8102 12.2157C25.6723 11.977 25.474 11.7788 25.2351 11.641M21.8951 16.29C21.8121 16.515 21.7221 16.736 21.6221 16.953C20.6754 19.0071 19.0265 20.6558 16.9721 21.602C16.7551 21.702 16.5341 21.792 16.3091 21.875C14.1895 22.6734 11.8518 22.6734 9.73212 21.875C9.50712 21.792 9.28612 21.702 9.06912 21.602C7.01466 20.6554 5.36568 19.0065 4.41912 16.952C4.31912 16.736 4.22912 16.514 4.14512 16.289C3.34806 14.1691 3.34806 11.8319 4.14512 9.712C4.22912 9.487 4.31912 9.266 4.41912 9.049C5.36557 6.99564 7.01376 5.34745 9.06712 4.401C9.28412 4.301 9.50512 4.211 9.73012 4.128C11.8498 3.32967 14.1875 3.32967 16.3071 4.128C16.5321 4.211 16.7531 4.301 16.9701 4.401C19.0239 5.34718 20.6725 6.99542 21.6191 9.049C21.7191 9.266 21.8081 9.487 21.8921 9.712C22.6905 11.8317 22.6905 14.1694 21.8921 16.289" fill="#F8D200"/>
<path d="M13.0189 4.69299C11.3759 4.69299 9.76988 5.18019 8.4038 6.09297C7.03772 7.00576 5.97299 8.30314 5.34425 9.82104C4.71551 11.3389 4.55101 13.0092 4.87153 14.6206C5.19206 16.232 5.98323 17.7122 7.14498 18.8739C8.30674 20.0357 9.7869 20.8268 11.3983 21.1474C13.0097 21.4679 14.68 21.3034 16.1979 20.6747C17.7158 20.0459 19.0132 18.9812 19.9259 17.6151C20.8387 16.249 21.3259 14.643 21.3259 13C21.3235 10.7976 20.4476 8.68604 18.8902 7.12869C17.3329 5.57134 15.2213 4.69538 13.0189 4.69299ZM13.0189 20.834C11.4695 20.834 9.95487 20.3745 8.66658 19.5137C7.37829 18.6529 6.37418 17.4294 5.78125 15.9979C5.18831 14.5665 5.03317 12.9913 5.33545 11.4717C5.63772 9.95201 6.38384 8.55612 7.47944 7.46052C8.57505 6.36491 9.97093 5.6188 11.4906 5.31652C13.0102 5.01424 14.5854 5.16938 16.0169 5.76232C17.4483 6.35526 18.6718 7.35936 19.5326 8.64766C20.3935 9.93595 20.8529 11.4506 20.8529 13C20.8505 15.077 20.0244 17.0682 18.5558 18.5368C17.0871 20.0055 15.0959 20.8316 13.0189 20.834Z" fill="#EDBC4D"/>
<path d="M11.9832 18.472H14.5702V7.52802H11.9832L9.5332 9.59702L10.5332 10.707L10.9922 11.217L11.9852 10.455L11.9832 18.472Z" fill="#FFD000"/>
</svg>
