<svg width="27" height="26" viewBox="0 0 27 26" fill="none" xmlns="http://www.w3.org/2000/svg">
<path d="M21.407 9.89802L21.039 9.68502L21.149 9.27202C20.2564 7.33442 18.7014 5.7791 16.764 4.88602C16.564 4.79202 16.351 4.70702 16.139 4.62802C14.1407 3.87652 11.9374 3.87652 9.93903 4.62802C9.72703 4.70702 9.51803 4.79202 9.31403 4.88602C7.37687 5.77892 5.82195 7.33385 4.92904 9.27102C4.83504 9.47102 4.75004 9.68402 4.67104 9.89702C3.9189 11.8952 3.9189 14.0988 4.67104 16.097C4.75004 16.31 4.83404 16.518 4.92904 16.723C5.82195 18.6602 7.37687 20.2151 9.31403 21.108C9.51403 21.202 9.72703 21.287 9.93903 21.366C11.9374 22.1175 14.1407 22.1175 16.139 21.366C16.351 21.287 16.56 21.202 16.764 21.108C18.7012 20.2151 20.2561 18.6602 21.149 16.723C21.243 16.523 21.328 16.31 21.407 16.097C22.1587 14.0987 22.1587 11.8953 21.407 9.89702M13.036 21.421C11.3705 21.421 9.74241 20.9271 8.35758 20.0018C6.97276 19.0765 5.89342 17.7613 5.25605 16.2226C4.61869 14.6839 4.45191 12.9907 4.77684 11.3572C5.10177 9.72365 5.90379 8.22317 7.08149 7.04547C8.25919 5.86777 9.75967 5.06575 11.3932 4.74082C13.0267 4.4159 14.7199 4.58266 16.2586 5.22003C17.7974 5.85739 19.1125 6.93673 20.0378 8.32156C20.9632 9.70639 21.457 11.3345 21.457 13C21.4547 15.2327 20.5667 17.3732 18.988 18.9519C17.4092 20.5307 15.2687 21.4186 13.036 21.421Z" fill="#ECEBEB"/>
<path d="M25.2522 11.64L24.0082 10.921C23.724 9.41273 23.1305 7.97966 22.2652 6.712L22.6362 5.325C22.7076 5.05864 22.7075 4.7782 22.6362 4.51185C22.5648 4.24549 22.4246 4.00262 22.2296 3.80764C22.0346 3.61265 21.7917 3.47242 21.5254 3.40105C21.259 3.32967 20.9786 3.32965 20.7122 3.401L19.3252 3.773C18.0577 2.9076 16.6246 2.31445 15.1162 2.031L14.3962 0.786004C14.2583 0.547194 14.06 0.348886 13.8212 0.21101C13.5824 0.0731347 13.3115 0.000549316 13.0357 0.000549316C12.76 0.000549316 12.489 0.0731347 12.2502 0.21101C12.0114 0.348886 11.8131 0.547194 11.6752 0.786004L10.9592 2.031C9.45079 2.31475 8.01761 2.90825 6.75021 3.774L5.36221 3.401C5.09585 3.32965 4.8154 3.32967 4.54905 3.40105C4.2827 3.47242 4.03983 3.61265 3.84484 3.80764C3.64986 4.00262 3.50963 4.24549 3.43825 4.51185C3.36687 4.7782 3.36686 5.05864 3.43821 5.325L3.81021 6.712C2.94446 7.97941 2.35096 9.41259 2.06721 10.921L0.822208 11.64C0.583379 11.7778 0.385037 11.976 0.247131 12.2147C0.109226 12.4534 0.0366211 12.7243 0.0366211 13C0.0366211 13.2757 0.109226 13.5466 0.247131 13.7853C0.385037 14.024 0.583379 14.2223 0.822208 14.36L2.06721 15.079C2.35096 16.5874 2.94446 18.0206 3.81021 19.288L3.43821 20.675C3.36642 20.9415 3.3661 21.2222 3.43728 21.4888C3.50846 21.7555 3.64863 21.9987 3.84369 22.194C4.03874 22.3892 4.28179 22.5296 4.54837 22.6011C4.81495 22.6726 5.09565 22.6725 5.36221 22.601L6.74921 22.229C8.01661 23.0948 9.44979 23.6883 10.9582 23.972L11.6762 25.216C11.8141 25.4548 12.0124 25.6531 12.2512 25.791C12.4901 25.9289 12.761 26.0015 13.0367 26.0015C13.3125 26.0015 13.5834 25.9289 13.8222 25.791C14.061 25.6531 14.2593 25.4548 14.3972 25.216L15.1162 23.972C16.6246 23.6883 18.0578 23.0948 19.3252 22.229L20.7122 22.601C20.9786 22.6724 21.259 22.6723 21.5254 22.601C21.7917 22.5296 22.0346 22.3894 22.2296 22.1944C22.4246 21.9994 22.5648 21.7565 22.6362 21.4902C22.7075 21.2238 22.7076 20.9434 22.6362 20.677L22.2652 19.29C23.1307 18.0225 23.7242 16.5893 24.0082 15.081L25.2522 14.362C25.4908 14.224 25.6889 14.0258 25.8266 13.787C25.9643 13.5483 26.0368 13.2776 26.0368 13.002C26.0368 12.7264 25.9643 12.4557 25.8266 12.217C25.6889 11.9782 25.4908 11.78 25.2522 11.642M21.6382 16.954C20.6913 19.0072 19.0428 20.655 16.9892 21.601C16.7722 21.701 16.5512 21.791 16.3262 21.874C14.2066 22.6724 11.8688 22.6724 9.74921 21.874C9.52421 21.791 9.30221 21.701 9.08621 21.601C7.03198 20.6546 5.38303 19.006 4.43621 16.952C4.33621 16.735 4.24721 16.514 4.16321 16.289C3.36542 14.1693 3.36542 11.8318 4.16321 9.712C4.24721 9.487 4.33721 9.266 4.43621 9.049C5.38323 6.99535 7.03215 5.34714 9.08621 4.401C9.30221 4.301 9.52421 4.211 9.74921 4.128C11.8688 3.32957 14.2066 3.32957 16.3262 4.128C16.5512 4.211 16.7722 4.301 16.9892 4.401C19.0431 5.34751 20.6917 6.99609 21.6382 9.05L21.5212 9.487L21.9122 9.713C22.7099 11.8328 22.7099 14.1702 21.9122 16.29C21.8292 16.515 21.7382 16.736 21.6392 16.953" fill="#B5B4B3"/>
<path d="M13.037 4.69299C11.394 4.69299 9.78794 5.18019 8.42186 6.09297C7.05578 7.00576 5.99105 8.30314 5.36231 9.82104C4.73358 11.3389 4.56908 13.0092 4.8896 14.6206C5.21013 16.232 6.00129 17.7122 7.16305 18.8739C8.3248 20.0357 9.80497 20.8268 11.4164 21.1474C13.0278 21.4679 14.698 21.3034 16.2159 20.6747C17.7338 20.0459 19.0312 18.9812 19.944 17.6151C20.8568 16.249 21.344 14.643 21.344 13C21.3416 10.7976 20.4656 8.68604 18.9083 7.12869C17.3509 5.57134 15.2394 4.69538 13.037 4.69299ZM13.037 20.834C11.4876 20.8338 9.97308 20.3742 8.68492 19.5132C7.39676 18.6523 6.39281 17.4287 5.80003 15.9972C5.20724 14.5657 5.05225 12.9906 5.35464 11.471C5.65703 9.95146 6.40322 8.55567 7.49886 7.46017C8.59451 6.36466 9.99039 5.61864 11.51 5.31645C13.0296 5.01425 14.6047 5.16945 16.0362 5.76242C17.4676 6.35538 18.691 7.35949 19.5518 8.64776C20.4126 9.93603 20.872 11.4506 20.872 13C20.8696 15.077 20.0435 17.0682 18.5748 18.5368C17.1062 20.0055 15.115 20.8316 13.038 20.834" fill="#B5B4B3"/>
<path d="M13.4664 15.797C14.8407 14.7247 15.8679 13.2706 16.4194 11.617C16.4853 11.3553 16.5212 11.0869 16.5264 10.817C16.5523 10.2218 16.4118 9.63111 16.1207 9.11127C15.8296 8.59143 15.3994 8.16299 14.8784 7.87402C14.3107 7.60109 13.6893 7.45796 13.0594 7.45502C11.8742 7.5057 10.7287 7.89622 9.75939 8.58002L10.9594 10.348L11.0294 10.448C11.2344 10.3136 11.4486 10.1936 11.6704 10.089C12.1131 9.86452 12.6002 9.74154 13.0964 9.72902C13.2485 9.70198 13.4049 9.71058 13.5532 9.75413C13.7015 9.79768 13.8376 9.87501 13.951 9.98004C14.0643 10.0851 14.1518 10.2149 14.2065 10.3595C14.2613 10.504 14.2818 10.6592 14.2664 10.813C14.0802 11.8716 13.5066 12.8231 12.6574 13.482C11.6572 14.4616 10.5667 15.3445 9.40039 16.119V18.278H16.6734V16.119H13.1154L13.4664 15.797Z" fill="#B5B4B3"/>
</svg>
