<svg width="27" height="26" viewBox="0 0 27 26" fill="none" xmlns="http://www.w3.org/2000/svg">
<path d="M21.4075 9.89793C21.3285 9.68493 21.2445 9.47693 21.1495 9.27293C20.2569 7.33534 18.7019 5.78001 16.7645 4.88693C16.5645 4.79293 16.3515 4.70793 16.1395 4.62893C14.1412 3.87743 11.9379 3.87743 9.93952 4.62893C9.72752 4.70793 9.51852 4.79293 9.31452 4.88693C7.37735 5.77984 5.82244 7.33476 4.92953 9.27193C4.83553 9.47193 4.75052 9.68493 4.67152 9.89793C3.91939 11.8962 3.91939 14.0997 4.67152 16.0979C4.75052 16.3109 4.83453 16.5189 4.92953 16.7239C5.82244 18.6611 7.37735 20.216 9.31452 21.1089C9.51452 21.2029 9.72752 21.2879 9.93952 21.3669C11.9379 22.1184 14.1412 22.1184 16.1395 21.3669C16.3515 21.2879 16.5605 21.2029 16.7645 21.1089C18.7017 20.216 20.2566 18.6611 21.1495 16.7239C21.2435 16.5239 21.3285 16.3109 21.4075 16.0979C22.1597 14.0997 22.1597 11.8962 21.4075 9.89793ZM13.0365 21.4209C11.371 21.4209 9.7429 20.927 8.35807 20.0017C6.97325 19.0764 5.8939 17.7612 5.25653 16.2225C4.61917 14.6838 4.4524 12.9906 4.77733 11.3571C5.10226 9.72356 5.90428 8.22308 7.08198 7.04539C8.25968 5.86769 9.76016 5.06567 11.3937 4.74074C13.0272 4.41581 14.7204 4.58258 16.2591 5.21994C17.7978 5.85731 19.113 6.93665 20.0383 8.32148C20.9636 9.7063 21.4575 11.3344 21.4575 12.9999C21.4551 15.2326 20.5672 17.3731 18.9884 18.9518C17.4097 20.5306 15.2692 21.4185 13.0365 21.4209Z" fill="#FFEFE2"/>
<path d="M25.2517 11.64L24.0077 10.921C23.724 9.41254 23.1305 7.97936 22.2647 6.71196L22.6367 5.32496C22.7081 5.0586 22.7081 4.77815 22.6367 4.5118C22.5653 4.24544 22.4251 4.00257 22.2301 3.80759C22.0351 3.6126 21.7923 3.47237 21.5259 3.401C21.2596 3.32962 20.9791 3.3296 20.7127 3.40096L19.3257 3.77296C18.0583 2.9072 16.6252 2.3137 15.1167 2.02996L14.3967 0.785956C14.259 0.547126 14.0608 0.348782 13.822 0.210876C13.5833 0.0729708 13.3125 0.000366211 13.0367 0.000366211C12.761 0.000366211 12.4902 0.0729708 12.2514 0.210876C12.0127 0.348782 11.8145 0.547126 11.6767 0.785956L10.9577 2.02996C9.44932 2.3137 8.01614 2.9072 6.74874 3.77296L5.36475 3.40096C5.09839 3.3296 4.81793 3.32962 4.55158 3.401C4.28523 3.47237 4.04236 3.6126 3.84737 3.80759C3.65239 4.00257 3.51216 4.24544 3.44078 4.5118C3.3694 4.77815 3.36939 5.0586 3.44074 5.32496L3.81274 6.71196C2.94509 7.97925 2.34988 9.4128 2.06474 10.922L0.81974 11.641C0.581165 11.7789 0.383076 11.9772 0.245361 12.2159C0.107646 12.4546 0.0351562 12.7254 0.0351562 13.001C0.0351562 13.2765 0.107646 13.5473 0.245361 13.786C0.383076 14.0247 0.581165 14.223 0.81974 14.361L2.06474 15.08C2.34849 16.5884 2.94198 18.0216 3.80774 19.289L3.43575 20.676C3.36376 20.9429 3.36349 21.2241 3.43497 21.4912C3.50646 21.7582 3.64715 22.0017 3.84285 22.197C4.03855 22.3923 4.28231 22.5325 4.54953 22.6034C4.81675 22.6743 5.09796 22.6735 5.36475 22.601L6.75174 22.229C8.01914 23.0947 9.45233 23.6882 10.9607 23.972L11.6797 25.216C11.8175 25.4548 12.0157 25.6531 12.2545 25.791C12.4932 25.9289 12.764 26.0015 13.0397 26.0015C13.3155 26.0015 13.5863 25.9289 13.825 25.791C14.0638 25.6531 14.262 25.4548 14.3997 25.216L15.1187 23.972C16.6272 23.6882 18.0603 23.0947 19.3277 22.229L20.7147 22.601C20.9811 22.6723 21.2616 22.6723 21.5279 22.6009C21.7943 22.5295 22.0371 22.3893 22.2321 22.1943C22.4271 21.9993 22.5673 21.7565 22.6387 21.4901C22.7101 21.2238 22.7101 20.9433 22.6387 20.677L22.2667 19.29C23.1325 18.0226 23.726 16.5894 24.0098 15.081L25.2537 14.362C25.4923 14.224 25.6904 14.0257 25.8281 13.787C25.9658 13.5483 26.0383 13.2775 26.0383 13.002C26.0383 12.7264 25.9658 12.4556 25.8281 12.2169C25.6904 11.9782 25.4923 11.7799 25.2537 11.642M21.9137 16.291C21.8307 16.516 21.7397 16.737 21.6407 16.954C20.6944 19.008 19.0458 20.6566 16.9917 21.603C16.7747 21.703 16.5538 21.793 16.3288 21.876C14.2091 22.6744 11.8714 22.6744 9.75174 21.876C9.52674 21.793 9.30474 21.703 9.08875 21.603C7.03451 20.6566 5.38557 19.008 4.43874 16.954C4.33874 16.738 4.24974 16.516 4.16574 16.291C3.36731 14.1713 3.36731 11.8336 4.16574 9.71396C4.24874 9.48896 4.33874 9.26796 4.43874 9.05096C5.38557 6.99692 7.03451 5.34834 9.08875 4.40196C9.30474 4.30196 9.52674 4.21196 9.75174 4.12896C11.8714 3.33053 14.2091 3.33053 16.3288 4.12896C16.5538 4.21196 16.7747 4.30196 16.9917 4.40196C19.0458 5.34831 20.6944 6.99694 21.6407 9.05096C21.7407 9.26796 21.8307 9.48896 21.9137 9.71396C22.7114 11.8337 22.7114 14.1712 21.9137 16.291Z" fill="#D58C43"/>
<path d="M13.0399 4.69293C11.3969 4.69293 9.79087 5.18013 8.42479 6.09291C7.05871 7.0057 5.99398 8.30308 5.36525 9.82098C4.73651 11.3389 4.572 13.0091 4.89253 14.6205C5.21306 16.2319 6.00422 17.7121 7.16598 18.8739C8.32773 20.0356 9.80789 20.8268 11.4193 21.1473C13.0307 21.4678 14.701 21.3033 16.2189 20.6746C17.7368 20.0459 19.0341 18.9811 19.9469 17.6151C20.8597 16.249 21.3469 14.6429 21.3469 12.9999C21.3445 10.7975 20.4686 8.68598 18.9112 7.12863C17.3539 5.57128 15.2423 4.69531 13.0399 4.69293ZM13.0399 20.8339C11.4905 20.8339 9.97587 20.3745 8.68757 19.5137C7.39928 18.6529 6.39517 17.4293 5.80224 15.9979C5.2093 14.5664 5.05417 12.9912 5.35644 11.4716C5.65872 9.95195 6.40484 8.55606 7.50044 7.46046C8.59605 6.36485 9.99193 5.61874 11.5116 5.31646C13.0312 5.01418 14.6064 5.16932 16.0379 5.76226C17.4693 6.3552 18.6928 7.3593 19.5536 8.64759C20.4145 9.93589 20.8739 11.4505 20.8739 12.9999C20.8715 15.0769 20.0454 17.0681 18.5767 18.5368C17.1081 20.0054 15.1169 20.8316 13.0399 20.8339Z" fill="#BA6F3F"/>
<path d="M15.5139 12.7539C15.8028 12.4967 16.0323 12.1796 16.1863 11.8247C16.3403 11.4699 16.4153 11.0857 16.4059 10.6989C16.4188 10.3111 16.3534 9.92453 16.2136 9.5625C16.0737 9.20047 15.8623 8.87037 15.5919 8.59195C15.237 8.262 14.8198 8.00632 14.3647 7.83991C13.9096 7.67351 13.4259 7.59974 12.9419 7.62295C11.8535 7.64214 10.7855 7.92123 9.82689 8.43695L10.8349 10.4019C11.4833 10.0508 12.2048 9.85596 12.9419 9.83295C13.5879 9.83295 13.9759 9.98795 14.1419 10.2989C14.1902 10.4356 14.2119 10.5802 14.2059 10.7249C14.2077 10.8106 14.1886 10.8955 14.1503 10.9721C14.1119 11.0488 14.0555 11.115 13.9859 11.1649C13.8317 11.2647 13.6671 11.3472 13.4949 11.4109C12.6124 11.5716 11.7168 11.6493 10.8199 11.6429V13.8539C11.727 13.8472 12.6322 13.9381 13.5199 14.1249C14.0499 14.3059 14.3079 14.5899 14.3079 14.9779C14.3173 15.1067 14.3004 15.2361 14.2583 15.3581C14.2162 15.4802 14.1497 15.5924 14.0629 15.6879C13.6599 16.019 13.1489 16.1896 12.6279 16.1669C11.8306 16.1738 11.0385 16.0384 10.2889 15.7669L9.52588 17.8349C10.5191 18.1973 11.5687 18.3808 12.6259 18.3769C13.7408 18.3991 14.8206 17.9867 15.6369 17.2269C15.9207 16.9343 16.1435 16.5881 16.2921 16.2085C16.4408 15.8289 16.5125 15.4235 16.5029 15.0159C16.5173 14.5884 16.4353 14.1631 16.2631 13.7716C16.0909 13.38 15.8328 13.0322 15.5079 12.7539" fill="#D58C43"/>
</svg>
